PathFileType	4	(X/Y/Z)	OpenSim_Sub02_EMGStiffKnee_Accel.trc
DataRate	CameraRate	NumFrames	NumMarkers	Units	OrigDataRate	OrigDataStartFrame	OrigNumFrames
100	100	41	8	m	100	6904	7890
Frame#	Time	torso_imu_offset_imu	pelvis_imu_offset_imu	tibia_r_imu_offset_imu	femur_r_imu_offset_imu	tibia_l_imu_offset_imu	femur_l_imu_offset_imu	toes_r_imu_offset_imu	toes_l_imu_offset_imu
				X1	Y1	Z1	X2	Y2	Z2	X3	Y3	Z3	X4	Y4	Z4	X5	Y5	Z5	X6	Y6	Z6	X7	Y7	Z7	X8		Y8	Z8	

6904	69.03000000	12.01317665	-1.24392165	5.54013141	10.62450708	-6.07527955	6.05640206	3.72945168	11.24355947	4.42504167	0.28421992	1.06246642	11.69433857	11.37360343	-3.17500222	2.91965804	11.86912200	-3.90641042	1.88722250	4.27460862	3.06496155	9.30104773	5.61202431	1.83237394	12.19032540
6905	69.04000000	11.65631444	-1.80722162	5.13990917	10.66265268	-4.47615447	6.00742315	7.52653798	11.76912502	3.38464876	-0.20043861	-0.89558653	3.86074030	10.70038814	-4.39050112	1.36597172	11.71386158	-4.06153738	1.95192374	4.76435700	2.72942454	9.07798834	8.66187492	-2.10504343	11.93040428
6906	69.05000000	11.13617370	-2.25055404	4.89836105	9.67527458	-2.15449129	6.31434079	8.92453881	6.31151387	-0.34588878	5.00160543	-0.90634211	-2.17263403	10.35055993	-4.84135560	0.55587591	10.38356682	-4.21714875	1.10534782	7.26048808	-1.42588672	8.30193522	9.51493300	-1.17456730	12.39037733
6907	69.06000000	10.61705751	-2.45944664	4.86112293	8.56005605	-0.00728816	6.31429170	10.22631380	-1.76746428	0.75088654	10.28783795	-0.64003237	-2.18646389	9.62683008	-5.06485870	1.71476161	8.93999171	-4.52886397	0.13646065	6.07220894	0.90949934	8.84411462	12.65200665	2.01577033	13.47785452
6908	69.07000000	10.20969882	-2.60550566	4.83909560	7.73583470	1.56031713	6.30347111	11.89696572	-0.72361936	1.04283114	15.09394810	-3.20971914	-3.26759806	8.41333990	-6.14929300	3.89183888	8.52101174	-4.86370715	-0.51022654	5.33985483	2.22092674	8.90084985	17.94082033	1.32597829	13.77884231
6909	69.08000000	9.88359379	-2.78999861	4.75200285	7.80363169	2.79528325	6.01221756	13.51857041	5.44331107	-0.70672119	16.86265560	-4.38270479	-3.78529147	7.15600282	-8.01513632	5.67768905	8.92540935	-4.98954018	-0.84557810	4.51829466	0.92057074	9.20103417	13.38491870	3.99668033	13.86883290
6910	69.09000000	9.76545357	-2.82569680	4.44097294	8.64344923	3.58627677	5.70000441	14.14623284	8.92310595	1.69154815	15.56084130	-2.02223653	-1.42275142	6.52603591	-9.42510778	4.99742692	9.78872399	-5.11351005	-0.86836355	4.53654856	-0.43779412	9.46579813	5.97371713	5.80785258	18.98881331
6911	69.10000000	9.92213692	-2.57414180	4.23457593	9.19757166	3.72799055	5.88987533	11.94217569	9.99181925	3.04584768	14.02741025	-0.51180060	0.37493243	6.00725415	-9.03980419	2.53449597	10.87118828	-5.32435465	-0.29345733	4.59370285	-0.22355185	9.33022260	0.66118093	3.36390032	19.86360093
6912	69.11000000	10.14936623	-2.17664266	4.24766437	9.15260253	3.09592299	6.19471776	9.23583839	7.33782182	2.89876006	11.04580062	-1.73402684	-0.81239656	4.96852675	-7.64294878	0.82616550	11.62574383	-5.47484846	0.45135579	4.36605519	1.15600229	9.44814022	2.75580235	0.88210930	17.56523691
6913	69.12000000	10.16681495	-1.77896211	4.04116532	8.62997721	2.21527724	6.12327365	8.26907503	3.66958011	1.35383088	8.64731077	-3.37450721	-2.28565057	3.27217394	-7.01220056	0.51108027	11.42412140	-5.40738509	1.09404137	4.74515793	1.27627939	9.05732005	1.73568000	4.96231116	16.46318399
6914	69.13000000	10.16782677	-1.32284015	4.46413160	8.33060077	1.25190617	5.97201932	8.68232772	1.08362047	1.03367997	8.19398558	-3.74494891	-1.45059644	1.02988741	-7.48032417	0.99813367	10.38827519	-4.78722648	1.38397903	4.46448194	0.87266529	9.13151730	-2.87425335	5.38887224	10.53499522
6915	69.14000000	10.01726170	-0.85093282	4.75475581	8.38739953	0.25240111	5.87929092	9.03885447	0.55536307	0.73575136	8.16289441	-3.16597845	0.56241119	-0.49724422	-7.63942304	1.31945866	9.28522192	-3.53593677	1.52832153	4.82216234	-0.19570454	8.91667331	-1.61044577	6.06533693	10.72696340
6916	69.15000000	9.45458698	-0.60658695	4.47642067	8.33661831	-0.61749126	5.75917291	9.71042465	1.03035979	0.51802877	7.69779245	-2.19523934	1.77787858	-0.03794116	-6.48087157	1.97879292	8.97077168	-2.24810303	1.82040579	5.19640600	-0.11952612	8.76704308	-1.25771598	5.44078315	10.33855633
6917	69.16000000	9.01197295	-0.63209866	4.35367063	7.95971256	-0.90072446	5.49865740	10.20233355	0.34098345	0.74137836	7.18667087	-0.99002752	1.96714650	1.15527437	-5.04987872	2.86896914	9.24621081	-1.26379073	1.91110569	4.71046387	0.45659709	8.94679911	-1.39980218	6.02220040	10.54954286
6918	69.17000000	8.93178951	-0.81879229	4.33186857	7.57308599	-0.75482642	5.06723264	10.43131268	-0.49894090	0.98124333	7.25211654	-0.08579719	1.71653053	1.71665497	-4.26797930	3.74794089	9.54740564	-0.83256827	1.75059653	4.83661085	0.63774520	8.82306236	-1.78259938	6.11970948	10.35816790
6919	69.18000000	8.89244470	-0.99383478	4.16148089	7.37679836	-0.38520558	4.68250813	10.06944928	0.34919812	1.13496795	7.86091761	0.06470250	1.43546858	2.10971915	-3.54101729	4.62562624	9.49423784	-1.02601674	1.50431469	5.07589719	0.50552682	8.64988065	-1.77258288	5.09725503	10.09242951
6920	69.19000000	8.76600623	-0.99533814	4.06371403	7.26378185	0.25625634	4.60237790	9.39207141	1.77021676	1.47980471	8.76413113	-0.51064628	1.26319371	2.54884267	-2.24661003	5.61879752	9.04464831	-1.42214228	1.37214875	5.09419234	0.35043555	8.55577364	-1.14722381	3.79820411	10.12292476
6921	69.20000000	8.55876245	-0.95695188	4.45048023	7.21998515	1.00073928	4.74576517	8.96035368	2.45903662	1.63754457	9.77803802	-1.48387098	1.19551273	3.02435252	-0.34061356	6.68191581	8.46050139	-1.93228656	1.50545634	4.96812579	0.52920936	8.59846845	0.16250107	3.25198947	10.59339543
6922	69.21000000	8.37458788	-1.31105969	4.60077976	7.30433948	1.39556603	4.72506808	8.98973147	2.66412918	1.72373684	10.48562379	-2.25534629	0.86877583	3.36385358	1.60187527	7.40523082	7.89574188	-2.47780013	1.60866294	5.02347925	0.40281201	8.60396989	1.64216017	3.29884213	11.25566872
6923	69.22000000	8.17681045	-1.57748132	4.88618222	7.40390580	1.50642581	4.71784136	9.27824181	2.82626077	1.69862918	10.56533037	-2.54551266	0.29022015	3.69235526	2.92491438	7.25643787	7.53377382	-2.91790852	1.39251925	4.81273090	0.32623904	8.76499341	3.23422509	2.93217041	11.98270366
6924	69.23000000	8.01380500	-1.57990773	4.96118685	7.49738932	1.39770023	4.80876036	9.68161879	2.79064226	1.79005180	10.05590830	-2.32585472	0.00638426	4.38111906	3.37812281	6.11186897	7.44316374	-3.26644860	0.82771713	5.08479474	0.39154466	8.69234514	4.29996618	1.91562899	12.36344033
6925	69.24000000	7.98976603	-1.45987494	4.83092602	7.56850290	1.07195281	4.95047293	10.11682514	2.17238078	1.57730986	9.22395038	-2.06349360	-0.05053094	5.64286103	2.61391770	4.24083403	7.51782231	-3.56595687	0.15486432	5.31959459	0.48091276	8.50915746	4.68864532	1.00617717	12.49711332
6926	69.25000000	7.98481466	-1.37036660	4.96917137	7.63519718	0.68929269	5.01385616	10.38930347	0.99984224	1.13805013	8.53382731	-2.09630328	-0.06898085	7.51974395	0.72169602	2.23516910	7.80141254	-3.42560874	-0.41052035	4.81306679	0.38208904	8.70101228	5.08106667	0.62289545	12.97326876
6927	69.26000000	7.91939331	-1.43391991	5.00912170	7.67845558	0.55162501	4.96955304	10.33487692	-0.34705486	0.95061750	8.30658729	-2.27516874	-0.02011899	10.05540454	-1.83555453	0.74503739	8.07436971	-2.71358716	-0.61843269	5.01211762	0.09820998	8.55354864	5.38931081	0.85634969	13.30077252
6928	69.27000000	7.80242687	-1.61289684	4.83634465	7.74433444	0.57165941	4.84062541	10.08455084	-1.27023261	0.66449870	8.34968555	-2.39361163	-0.02999789	12.23488528	-4.30543111	0.20825779	8.14231130	-1.69010886	-0.56948578	5.05208131	-0.11176323	8.41034261	5.62407568	1.36295043	13.23471723
6929	69.28000000	7.83785032	-1.65137172	4.82997897	7.85049302	0.77767805	4.64816492	9.70568858	-1.45982123	0.45873996	8.40340107	-2.46645573	-0.34709909	12.21019552	-5.55795407	0.87890407	8.19776574	-0.62334516	-0.28253704	5.30383975	-0.10608265	8.34827229	5.83465717	1.49874033	13.01074319
6930	69.29000000	7.97749291	-1.55983256	5.00904308	7.87144012	1.09163528	4.53666144	9.32685897	-1.03495570	0.32751515	8.36315038	-2.41428164	-0.58929373	10.42177750	-5.32052794	2.46497067	8.39306732	0.50949608	0.08348004	5.52664009	0.07216403	8.29493275	6.27755517	1.56575042	12.92989999
6931	69.30000000	8.19418122	-1.39201079	5.18588512	7.69561894	1.44716868	4.46920480	9.08842102	-0.31837969	0.23566452	8.16179830	-2.26099027	-0.46234385	8.64835450	-3.96501471	3.75378945	8.63665464	1.65508826	0.27336406	5.41685362	-0.02902710	8.27832372	6.74731188	2.56014338	12.89778953
6932	69.31000000	8.36024692	-1.31613734	5.26060935	7.39995435	1.75980005	4.42161007	8.94392856	0.61975593	0.46002389	8.00784754	-2.01329632	-0.05824368	7.76763304	-2.08391850	4.20241997	9.01921672	2.22918997	0.40760575	5.16491515	-0.14395609	8.45447859	6.85324773	3.82704101	12.62378843
6933	69.32000000	8.50802839	-1.30042648	5.32092188	7.20336236	1.93433914	4.37469419	8.97385991	1.47785563	0.93425260	8.19253911	-1.83700827	0.20199756	7.93086938	-0.22879834	4.24154575	9.42977765	2.07843023	0.72634394	5.45543293	-0.11248181	8.33271179	6.89052307	4.40082213	12.17824518
6934	69.33000000	8.63051794	-1.28824462	5.26986851	7.20421653	1.98544519	4.32681424	9.13058774	2.16648676	1.15887146	8.74986280	-1.81345929	0.17766460	8.61318344	0.97989149	4.26037414	9.76840999	1.48697333	1.04627075	5.57452476	0.16130175	8.28592217	7.14693959	5.01310064	12.19224219
6935	69.34000000	8.76679345	-1.24854265	5.20373168	7.38508090	1.95704691	4.26962504	9.33320826	2.65297397	1.03690416	9.30481467	-1.81090118	0.03662021	9.24636964	0.70299635	4.00329807	10.02046173	1.06556202	1.25041588	5.11424964	0.33682241	8.60639773	7.34079610	5.47868716	12.27972250
6936	69.35000000	8.93717811	-1.21805349	5.15265134	7.74781521	1.90693630	4.16020101	9.59184727	2.80701327	1.16072788	9.64455218	-1.71012990	-0.00704553	9.67375287	-0.90274124	3.37082698	10.03873845	0.99706219	1.37424605	5.37410324	0.21838723	8.49668967	7.24800201	5.44659871	11.97618689
6937	69.36000000	9.17755351	-1.21261040	5.12222407	8.15899255	1.90450050	3.95546093	9.87469409	2.84734933	1.21929382	9.80878708	-1.61387577	0.12555389	9.96749872	-2.78059856	2.72301856	9.89995424	0.76333996	1.32523358	5.30633082	0.10132828	8.54700816	6.70597707	6.57073318	12.04492984
6938	69.37000000	9.37177497	-1.20772689	5.18041071	8.61385923	1.99239241	4.01197509	10.02568575	2.93365825	1.03591862	9.76268915	-1.66694596	0.27577154	10.35675948	-4.25421681	2.46337474	9.60324325	0.64758423	0.97683977	5.34775426	0.21302495	8.56641748	9.96380122	12.87787670	12.25986100
6939	69.38000000	9.52459092	-1.20021157	5.29397977	8.91420428	2.02150899	4.26383528	9.92937707	2.91345406	0.97189141	9.61364231	-1.87123993	0.25017291	11.46882842	-3.86340623	1.56876500	9.39685607	0.81022139	0.10466178	5.51199817	0.41956141	8.58906305	17.14463498	0.96282369	8.33111011
6940	69.39000000	9.69304386	-1.12037852	5.48233572	9.11534739	1.94382577	4.40373148	9.92632135	2.63057726	0.91178019	9.59235599	-2.09160022	0.14896536	14.23814075	-1.24131562	1.32661037	9.27209405	1.17253571	-1.59543100	5.27304001	0.24838736	8.79477394	23.10980530	-16.50825699	2.99201115
6941	69.40000000	10.00731798	-1.09311325	5.43217937	9.35279166	1.73232713	4.33545457	10.26220465	2.35554565	0.97040329	9.72777950	-2.36311332	0.19305508	18.69484710	-1.78575135	4.35807088	9.27193951	1.86440711	-2.41655936	5.10288667	0.06233615	8.95979467	26.49254245	-7.25334902	3.54094576
6942	69.41000000	10.19879040	-1.13877924	5.24337715	9.26851861	1.43652504	3.68092151	10.68132293	2.14714264	1.31817236	9.96752042	-2.56902469	0.31511183	18.66457053	-8.09742504	6.36910470	9.42781565	2.42316641	-1.82074896	5.34373362	0.01554387	8.84400021	24.33416073	-6.27544953	4.82140046
6943	69.42000000	10.05190917	-1.25997773	5.03040919	9.02509717	1.32028538	3.06154451	10.88847442	1.90691266	1.84844723	10.09368773	-2.50743921	0.48636510	11.87930818	-12.72261505	7.20296185	9.03550195	1.63304773	-1.74093988	5.50179477	0.20577123	8.78746142	19.58003609	-7.21891874	4.41837039
6944	69.43000000	9.62877518	-1.46929651	4.92729108	8.86487919	1.39127396	2.73218392	10.73591455	1.64075165	2.22294332	9.99398257	-2.09286990	0.90744328	6.53632598	-12.90293965	8.13579571	8.60546800	0.43783939	-1.62460731	5.14962855	0.41904643	9.09906648	15.68708908	-5.52435806	4.31258687
